<?xml version="1.0" encoding="UTF-8"?>
<svg id="Layer_3" xmlns="http://www.w3.org/2000/svg" version="1.1" viewBox="0 0 443.8 127.2">
  <!-- Generator: Adobe Illustrator 30.1.0, SVG Export Plug-In . SVG Version: 2.1.1 Build 136)  -->
  <defs>
    <style>
      .st0 {
        fill: #e8c02f;
      }
    </style>
  </defs>
  <g id="Goldstar_Logo_Black_No_Tagline">
    <g>
      <path id="t" d="M403.2,89.3c0,.7-.4,3.2-.9,3.3-1.4.5-6-.2-7.9,0-.3,0-.5,0-.7.2l-5.8,23.8c-.6-.1-3,.3-3.2-.4l5.5-23.6h-8.6l.7-3.4h20.9,0Z"/>
      <path id="r" d="M355.7,102.9c.3.6,1,.6,1.4,1.1,1.8,2.3,0,6.9-.2,9.6,0,.6.2,2.8,0,2.9h-3.4c-1.1-1.6,2.4-8.9-.2-11-1.7-1.4-9-.2-11.4-.6l-2.7,11.5-3.2.2,6-27.5c4.5,0,9.6-.5,14,0,2,.2,3.7.6,4.6,2.6,1.8,3.6-.9,10.4-5,11.4h0ZM342.7,101.3h11.2c.2,0,1.7-1,1.9-1.2,2.2-2,3-7-1-7.4-1.1-.1-9.8-.2-10.2.1l-1.9,8.5Z"/>
      <path id="o" d="M303.8,88.6c10.7-1.2,16.1,5,13.6,15.5-2.2,8.9-9.4,13.7-18.5,13-15.6-1.2-10.5-26.8,4.9-28.5ZM304.5,92c-13.1,1.2-16.5,23.2-1.5,21.7,12.9-1.2,16.5-23.2,1.5-21.7Z"/>
      <path id="p" d="M253,105.6l-2.4,10.6c-.4.5-2.6.5-3.2.4-.3,0-.4.1-.4-.4l6-27h14.9c8.7,1,4.2,15.3-3.8,16.3-1.6.2-10.6-.2-11.1,0h0ZM254,102.2h9.1c1.1,0,3.1-.9,3.9-1.7,1.4-1.4,2.7-5.4,1.2-6.9-1.8-1.9-9.5-.6-12.2-1l-2.2,9.1.3.5h0Z"/>
      <path id="s" d="M230.4,96.9h-3.6c.3-6-9.1-6.3-12.1-2.9-1.4,1.6-1.9,4.3.3,5.4,5.3,2.7,17.7.2,13.3,11.1-3.4,8.5-20.5,9-21.5.6-.1-1-.2-2.9.4-3.7h3.5c-1.8,7.5,10.7,7.9,13.8,3.3,4.4-6.5-7.6-6.2-11-7.5-6.5-2.4-3.9-10.4.9-13.2,5.8-3.4,17.5-2.3,16,6.8h0Z"/>
      <path id="n" d="M183.3,110.9l4.5-21.8c.7.2,3.2-.3,3.4.4l-5.2,27.1h-4c0,0-11.9-21.5-11.9-21.5l-4,21.2c-.4.8-2.7.2-3.6.4l5.1-27.6c1.1,0,3.5-.4,4.3.3l11.5,21.5h0Z"/>
      <path id="a" d="M118.3,116.6l16.5-27.2h4.4s5.2,27.2,5.2,27.2h-3.7c-.3-.2-.4-.5-.5-.9-.6-2.2-.6-4.9-1.2-7.1h-12s-5.2,8-5.2,8c0,0-3.5,0-3.5,0ZM138.2,105.1l-1.9-12-7.2,12h9.1Z"/>
      <path id="r-2" d="M99.1,102.9l.2.5c.6,0,.8.3,1.1.8,2.1,2.7-1.2,9.2-.3,12.4l-3.5-.2c-.6-3.4,3.5-11-2.1-11.5-3-.3-6.4.2-9.5,0l-2.5,11.5c-.3.4-3.1.4-3.4,0l6.4-27.2c4.5,0,9.6-.5,14.1,0,.7,0,1.9.3,2.6.5,5,2,1.8,12.5-2.9,13.4h0ZM86.3,101.5h9.4c.5,0,2.1-.5,2.6-.8,2.8-1.4,4.3-7.5.3-8.1-3.2-.4-7.2.3-10.5,0l-2,8.3.3.6h0Z"/>
      <polygon id="t-2" points="66 89.3 64.9 92.6 56.2 92.9 50.1 116.4 46.8 116.4 52.8 92.6 44.1 92.6 44.9 89.3 66 89.3"/>
      <path id="r-3" d="M389.3,28.3l-1.9,6.2c3.7-1.5,7-3.9,10.2-6.2,3,.6,8.9.8,9.5,4.7.5,3.9-.6,9.2-2.5,12.3h-12.6c.4-1.8,2.6-5.9,1.8-7.7-.6-1.2-5.8-1.5-7-.9l-9.8,29.7h-13.3l12.2-38.2h13.4Z"/>
      <path id="a-2" d="M320.6,37.4c.9-2.7,1.5-5.8,2.5-8.4.1-.3.2-.6.5-.7h37.7c2.6,1.1,3.8,4.1,3.3,6.7l-9.8,31.3h-40.2c-3.1-.6-4.3-3.9-3.9-6.9.4-2.5,2.7-9.4,4-11.6,1.7-2.9,4.6-5,8-5.2h25.4c.6-1.4,1.1-3,0-4.3-.2-.2-1-1-1.2-1h-26.5,0ZM345.6,51.3h-17.2c-.7,0-2.1,1.7-2.5,2.3-1.3,2.7-2.5,7.4-3.5,10.4,0,.2-.4.6,0,.7l10.6-7.4h10.6c0,0,2-6.1,2-6.1h0Z"/>
      <path id="t-3" d="M305.3,15.6l-3.8,12.7h12.7l-2.9,9.1h-12.9c0,0-5.5,17.5-5.5,17.5-.3.7.6,2.5,1.3,2.5h10.7l-3,9.1h-19.6c-2.9-.3-4.6-3.8-4.1-6.5l7.1-22.5h-13.7l12.3-8.9,4.5-.2,4.1-12.7h13,0Z"/>
      <path id="s-2" d="M267.6,28.3l-3,9.1h-27.6c-2.9,0-4.4,4.1-1.4,5.2h23.9c2.9.3,4,3.5,3.7,6.1-.3,2.4-3.5,11.1-4.9,13.1-1.2,1.8-4.8,4.6-6.9,4.6h-42.4l12.7-9.1h23.7c3.1-.4,3.9-4.8.6-5.5h-22.9c-3.6-1.2-4.4-4.4-3.5-7.7,1.4-5.6,5-15.9,12.2-15.9h35.9,0Z"/>
      <path id="d" d="M218.4,15.1l-16.6,51.2h-39.9c-2.6-.6-3.9-3.2-4-5.8,2.5-7.5,4.3-16.2,7.3-23.5,1.9-4.5,5.4-8.1,10.4-8.8h24.9s4.6-13.2,4.6-13.2h13.3,0ZM197.3,37.7h-15.2c-1.5,0-4.4,2.8-4.7,4.4l-7.6,23,10.7-7.6,10.6-.2,6.2-19.6h0Z"/>
      <polygon id="l" points="164.1 14.6 147.2 66.5 133.9 66.5 150.7 14.6 164.1 14.6"/>
      <path id="o-2" d="M131.4,28.3c-16.2,0-12.9-.2-28.7-.2-1.9,0-3.7.1-5.1.3-3.9.4-6.3,2.9-7.8,6.4-3.1,7.7-4.9,16.6-7.7,24.4-.4,3.3,1.5,7,5.1,7.3,10.7,1,22.3.7,33.1.5,3.4,0,6.9-3.6,8.3-6.6,3.5-7.2,5-17,8.1-24.5.4-3.4-1.8-7.2-5.4-7.5h0ZM121.2,56.4l-7.5-2.3-4.5,8.1-2.1-8.5-8.4,2.7,5.1-9-4.9-8,8.3,1.1,3.5-8.9,3.5,8.8,8.5-.9-5.8,7.8,4.3,9h0Z"/>
      <path id="g" d="M26.1,18.8c1.1-3.2,4.8-7.8,8.5-7.8h409.1V0H28.1l-3.1.6c-5.9,1.6-10.1,6.3-12.4,11.8L.3,56.1c-1.2,4.2,1.4,10,6,10.4h59.4c0-.1,12-37,12-37h-20.5l-16.4,11.8h17l-4.5,13.7h-31.9c-2.7,0-4.1-2.9-3.9-5.3,3.2-9.9,5.1-21,8.6-30.8h0ZM371.1,4.4l1.2-3.6,1.2,3.6h3.8l-3,2.2,1.2,3.6-3-2.2-3,2.2,1.2-3.6-3-2.2h3.8,0ZM320.2,4.4l1.2-3.6,1.2,3.6h3.8l-3,2.2,1.2,3.6-3-2.2-3,2.2,1.2-3.6-3-2.2h3.8,0ZM269.2,4.4l1.2-3.6,1.2,3.6h3.8l-3,2.2,1.2,3.6-3-2.2-3,2.2,1.2-3.6-3-2.2h3.8,0ZM218.3,4.4l1.2-3.6,1.2,3.6h3.8l-3,2.2,1.2,3.6-3-2.2-3,2.2,1.2-3.6-3-2.2h3.8,0ZM167.4,4.4l1.2-3.6,1.2,3.6h3.8l-3,2.2,1.2,3.6-3-2.2-3,2.2,1.2-3.6-3-2.2h3.8,0ZM116.4,4.4l1.2-3.6,1.2,3.6h3.8l-3,2.2,1.2,3.6-3-2.2-3,2.2,1.2-3.6-3-2.2h3.8,0ZM65.5,4.4l1.2-3.6,1.2,3.6h3.8l-3,2.2,1.2,3.6-3-2.2-3,2.2,1.2-3.6-3-2.2h3.8,0Z"/>
      <rect id="bottom_bar" y="123.6" width="443.8" height="3.6"/>
      <rect id="top_bar" y="78.5" width="443.8" height="3.6"/>
      <polygon id="_1" class="st0" points="66.6 .9 67.8 4.4 71.5 4.4 68.5 6.7 69.7 10.2 66.6 8 63.6 10.2 64.8 6.7 61.7 4.4 65.5 4.4 66.6 .9"/>
      <polygon id="_2" class="st0" points="117.6 .9 118.7 4.4 122.5 4.4 119.4 6.7 120.6 10.2 117.6 8 114.5 10.2 115.7 6.7 112.7 4.4 116.4 4.4 117.6 .9"/>
      <polygon id="_3" class="st0" points="168.5 .9 169.7 4.4 173.4 4.4 170.4 6.7 171.6 10.2 168.5 8 165.5 10.2 166.6 6.7 163.6 4.4 167.4 4.4 168.5 .9"/>
      <polygon id="_4" class="st0" points="219.5 .9 220.6 4.4 224.4 4.4 221.3 6.7 222.5 10.2 219.5 8 216.4 10.2 217.6 6.7 214.6 4.4 218.3 4.4 219.5 .9"/>
      <polygon id="_5" class="st0" points="270.4 .9 271.6 4.4 275.3 4.4 272.3 6.7 273.4 10.2 270.4 8 267.4 10.2 268.5 6.7 265.5 4.4 269.2 4.4 270.4 .9"/>
      <polygon id="_6" class="st0" points="321.4 .9 322.5 4.4 326.3 4.4 323.2 6.7 324.4 10.2 321.4 8 318.3 10.2 319.5 6.7 316.5 4.4 320.2 4.4 321.4 .9"/>
      <polygon id="_7" class="st0" points="372.3 .9 373.5 4.4 377.2 4.4 374.2 6.7 375.3 10.2 372.3 8 369.3 10.2 370.4 6.7 367.4 4.4 371.1 4.4 372.3 .9"/>
      <g>
        <polygon class="st0" points="18.5 110.9 8.4 119.3 13.2 107.1 2.2 100.2 15.2 101 18.5 88.4 21.7 101 34.7 100.2 23.7 107.1 28.5 119.3 18.5 110.9"/>
        <path d="M18.5,90.4l2.8,11.2,11.5-.8-9.7,6.1,4.3,10.7-8.9-7.4-8.9,7.4,4.3-10.7-9.7-6.1,11.5.8,2.8-11.2M18.5,86.3l-1,3.8-2.6,10.3-10.7-.7-3.9-.3,3.3,2.1,9,5.7-4,9.9-1.5,3.7,3-2.5,8.2-6.8,8.2,6.8,3,2.5-1.5-3.7-4-9.9,9-5.7,3.3-2.1-3.9.3-10.7.7-2.6-10.3-1-3.8h0Z"/>
      </g>
      <g>
        <polygon class="st0" points="425.7 110.9 415.6 119.3 420.5 107.1 409.4 100.2 422.4 101 425.7 88.4 428.9 101 441.9 100.2 430.9 107.1 435.7 119.3 425.7 110.9"/>
        <path d="M425.7,90.4l2.8,11.2,11.5-.8-9.7,6.1,4.3,10.7-8.9-7.4-8.9,7.4,4.3-10.7-9.7-6.1,11.5.8,2.8-11.2M425.7,86.3l-1,3.8-2.6,10.3-10.7-.7-3.9-.3,3.3,2.1,9,5.7-4,9.9-1.5,3.7,3-2.5,8.2-6.8,8.2,6.8,3,2.5-1.5-3.7-4-9.9,9-5.7,3.3-2.1-3.9.3-10.7.7-2.6-10.3-1-3.8h0Z"/>
      </g>
      <polygon class="st0" points="110.6 31.7 114.1 40.5 122.6 39.6 116.9 47.4 121.2 56.4 113.6 54.1 109.1 62.2 107 53.7 98.6 56.4 103.7 47.4 98.8 39.5 107.1 40.5 110.6 31.7"/>
    </g>
  </g>
</svg>